<svg width="16" height="16" viewBox="0 0 16 16" fill="none" xmlns="http://www.w3.org/2000/svg">
<path d="M9.5 4.05812C9.5 3.82146 9.624 3.60746 9.76733 3.41879C9.91467 3.22546 10 2.99612 10 2.75012C10 2.05946 9.32867 1.50012 8.5 1.50012C7.67133 1.50012 7 2.06012 7 2.75012C7 2.99612 7.08533 3.22546 7.23267 3.41879C7.376 3.60746 7.5 3.82146 7.5 4.05812C7.50029 4.11529 7.48909 4.17193 7.46706 4.22468C7.44503 4.27743 7.41263 4.32522 7.37177 4.3652C7.33092 4.40519 7.28244 4.43655 7.22923 4.45744C7.17601 4.47833 7.11915 4.48831 7.062 4.48679C6.13444 4.46007 5.20847 4.39334 4.28667 4.28679C4.41067 5.36212 4.482 6.45346 4.49667 7.55812C4.49729 7.61606 4.48639 7.67354 4.4646 7.72723C4.44282 7.78091 4.41058 7.82974 4.36977 7.87086C4.32895 7.91198 4.28038 7.94459 4.22686 7.96678C4.17333 7.98897 4.11594 8.0003 4.058 8.00012C3.82133 8.00012 3.60733 7.87612 3.41867 7.73279C3.22758 7.58353 2.99246 7.50172 2.75 7.50012C2.05933 7.50012 1.5 8.17145 1.5 9.00012C1.5 9.82879 2.06 10.5001 2.75 10.5001C2.996 10.5001 3.22533 10.4148 3.41867 10.2675C3.60733 10.1241 3.82133 10.0001 4.058 10.0001C4.26467 10.0001 4.428 10.1735 4.41267 10.3801C4.32974 11.5105 4.18688 12.6356 3.98467 13.7508C4.99667 13.8775 6.02333 13.9568 7.062 13.9868C7.11915 13.9883 7.17601 13.9783 7.22923 13.9574C7.28244 13.9366 7.33092 13.9052 7.37177 13.8652C7.41263 13.8252 7.44503 13.7774 7.46706 13.7247C7.48909 13.6719 7.50029 13.6153 7.5 13.5581C7.5 13.3215 7.376 13.1075 7.23267 12.9188C7.08341 12.7277 7.0016 12.4926 7 12.2501C7 11.5601 7.672 11.0001 8.5 11.0001C9.32867 11.0001 10 11.5601 10 12.2501C10 12.4961 9.91467 12.7255 9.76733 12.9188C9.624 13.1075 9.50067 13.3215 9.50067 13.5581C9.50067 13.7801 9.68533 13.9575 9.90733 13.9448C11.1203 13.8734 12.3283 13.7332 13.5253 13.5248C13.7065 12.4836 13.836 11.4341 13.9133 10.3801C13.9168 10.3314 13.9102 10.2825 13.8939 10.2364C13.8776 10.1904 13.852 10.1482 13.8186 10.1125C13.7853 10.0769 13.7449 10.0485 13.7001 10.0291C13.6552 10.0098 13.6068 9.9999 13.558 10.0001C13.3213 10.0001 13.1073 10.1241 12.9187 10.2675C12.7253 10.4148 12.496 10.5001 12.25 10.5001C11.56 10.5001 11 9.82879 11 9.00012C11 8.17145 11.56 7.50012 12.25 7.50012C12.4967 7.50012 12.7253 7.58546 12.9187 7.73279C13.1073 7.87612 13.3213 8.00012 13.5587 8.00012C13.6166 8.0003 13.674 7.98897 13.7275 7.96678C13.781 7.94459 13.8296 7.91198 13.8704 7.87086C13.9112 7.82974 13.9435 7.78091 13.9653 7.72723C13.9871 7.67354 13.998 7.61606 13.9973 7.55812C13.9813 6.36336 13.899 5.17042 13.7507 3.98479C12.4933 4.21279 11.2107 4.36746 9.90667 4.44412C9.85419 4.44703 9.80166 4.43918 9.75233 4.42103C9.703 4.40289 9.6579 4.37485 9.61981 4.33863C9.58172 4.30241 9.55144 4.25879 9.53084 4.21043C9.51023 4.16208 9.49974 4.11068 9.5 4.05812Z" stroke="black" stroke-linecap="round" stroke-linejoin="round"/>
</svg>
