<svg width="256" height="256" viewBox="0 0 256 256" fill="none" xmlns="http://www.w3.org/2000/svg">
<path d="M116 128V48C116 44.8174 117.264 41.7652 119.515 39.5147C121.765 37.2643 124.817 36 128 36C131.183 36 134.235 37.2643 136.485 39.5147C138.736 41.7652 140 44.8174 140 48V128C140 131.183 138.736 134.235 136.485 136.485C134.235 138.736 131.183 140 128 140C124.817 140 121.765 138.736 119.515 136.485C117.264 134.235 116 131.183 116 128ZM182.55 46C179.885 44.3593 176.685 43.8244 173.632 44.5092C170.579 45.1941 167.914 47.0445 166.205 49.6661C164.496 52.2877 163.879 55.473 164.486 58.543C165.092 61.6129 166.873 64.3246 169.45 66.1C191.41 80.37 204 103 204 128C204 148.156 195.993 167.487 181.74 181.74C167.487 195.993 148.156 204 128 204C107.844 204 88.5127 195.993 74.2599 181.74C60.0071 167.487 52 148.156 52 128C52 103 64.59 80.37 86.55 66.05C88.9897 64.2215 90.6419 61.5329 91.1711 58.5303C91.7003 55.5278 91.0667 52.4363 89.3991 49.884C87.7314 47.3316 85.1548 45.5097 82.1925 44.7883C79.2302 44.0669 76.1044 44.5002 73.45 46C44.56 64.78 28 94.69 28 128C28 154.522 38.5357 179.957 57.2893 198.711C76.043 217.464 101.478 228 128 228C154.522 228 179.957 217.464 198.711 198.711C217.464 179.957 228 154.522 228 128C228 94.69 211.44 64.78 182.55 46Z" fill="#F24E1E"/>
</svg>
