<svg width="43" height="43" viewBox="0 0 43 43" fill="none" xmlns="http://www.w3.org/2000/svg">
<path d="M3.98389 33.337C13.6068 33.337 22.929 34.6241 31.788 37.0354C33.0676 37.3837 34.3458 36.4323 34.3458 35.1062V33.337M6.62406 8.25537V9.57546C6.62406 10.3045 6.03303 10.8956 5.30397 10.8956H3.98389M3.98389 10.8956V10.2355C3.98389 9.14191 4.87042 8.25537 5.96401 8.25537H35.6659M3.98389 10.8956V26.7366M35.6659 8.25537V9.57546C35.6659 10.3045 36.257 10.8956 36.986 10.8956H38.3061M35.6659 8.25537H36.326C37.4196 8.25537 38.3061 9.14191 38.3061 10.2355V27.3966C38.3061 28.4902 37.4196 29.3768 36.326 29.3768H35.6659M3.98389 26.7366V27.3966C3.98389 28.4902 4.87042 29.3768 5.96401 29.3768H6.62406M3.98389 26.7366H5.30397C6.03303 26.7366 6.62406 27.3276 6.62406 28.0567V29.3768M35.6659 29.3768V28.0567C35.6659 27.3276 36.257 26.7366 36.986 26.7366H38.3061M35.6659 29.3768H6.62406M26.4253 18.8161C26.4253 21.7323 24.0612 24.0964 21.145 24.0964C18.2287 24.0964 15.8647 21.7323 15.8647 18.8161C15.8647 15.8998 18.2287 13.5357 21.145 13.5357C24.0612 13.5357 26.4253 15.8998 26.4253 18.8161ZM31.7057 18.8161H31.7189V18.8293H31.7057V18.8161ZM10.5843 18.8161H10.5975V18.8293H10.5843V18.8161Z" stroke="black" stroke-opacity="0.91" stroke-width="2.11214" stroke-linecap="round" stroke-linejoin="round"/>
</svg>
