<svg width="44" height="43" viewBox="0 0 44 43" fill="none" xmlns="http://www.w3.org/2000/svg">
<path d="M36.5326 15.3153C38.0887 15.8159 39.1728 17.301 39.1728 19.0066V26.5496C39.1728 28.5502 37.6813 30.2467 35.6873 30.4094C35.0908 30.4581 34.4925 30.5007 33.8925 30.5371V35.9772L28.6121 30.6968C26.2294 30.6968 23.8697 30.5997 21.5369 30.4093C21.0118 30.3664 20.5216 30.2172 20.0843 29.9841M36.5326 15.3153C36.2661 15.2295 35.9858 15.1726 35.6947 15.1485C33.3595 14.9547 30.9973 14.8558 28.6121 14.8558C26.2269 14.8558 23.8647 14.9547 21.5296 15.1485C19.5387 15.3137 18.0514 17.0088 18.0514 19.0065V26.5495C18.0514 28.0232 18.8608 29.332 20.0843 29.9841M36.5326 15.3153V12.0173C36.5326 9.16343 34.5054 6.69004 31.6753 6.32264C28.0803 5.85594 24.4143 5.61523 20.6921 5.61523C16.9696 5.61523 13.3032 5.85599 9.70786 6.32278C6.87776 6.69021 4.85059 9.16359 4.85059 12.0174V22.9746C4.85059 25.8284 6.87777 28.3018 9.70787 28.6692C10.7234 28.8011 11.7446 28.9149 12.7711 29.0103V37.2973L20.0843 29.9841" stroke="black" stroke-opacity="0.91" stroke-width="2.11214" stroke-linecap="round" stroke-linejoin="round"/>
</svg>
