<svg width="43" height="43" viewBox="0 0 43 43" fill="none" xmlns="http://www.w3.org/2000/svg">
<path d="M12.3394 18.3761C13.7586 18.3761 15.0392 17.5914 15.9151 16.4746C17.2759 14.7395 18.991 13.2954 20.9515 12.2513C22.2226 11.5744 23.3255 10.5688 23.8603 9.23173C24.2345 8.29616 24.4268 7.29777 24.4268 6.29012V5.1753C24.4268 4.44624 25.0178 3.85522 25.7469 3.85522C27.9341 3.85522 29.7072 5.62829 29.7072 7.81547C29.7072 9.84247 29.2503 11.7628 28.4339 13.479C27.9665 14.4617 28.6223 15.736 29.7105 15.736M29.7105 15.736H35.2123C37.0193 15.736 38.6367 16.9575 38.828 18.7543C38.9072 19.4975 38.9477 20.2522 38.9477 21.0163C38.9477 26.0285 37.2019 30.6328 34.2852 34.2545C33.603 35.1016 32.5483 35.5373 31.4606 35.5373H24.392C23.5407 35.5373 22.695 35.4 21.8874 35.1308L16.4056 33.3035C15.598 33.0343 14.7522 32.8971 13.9009 32.8971H11.0574M29.7105 15.736H25.7469M11.0574 32.8971C11.2031 33.2572 11.3617 33.6107 11.5326 33.957C11.8796 34.6603 11.3953 35.5373 10.6111 35.5373H9.01326C7.44902 35.5373 5.99823 34.6255 5.54173 33.1293C4.94598 31.1768 4.62549 29.1042 4.62549 26.9567C4.62549 24.2242 5.14438 21.6129 6.08901 19.2159C6.62594 17.8535 8.00022 17.0561 9.46467 17.0561H11.3177C12.1483 17.0561 12.6293 18.0345 12.1981 18.7445C10.7435 21.1392 9.90583 23.9501 9.90583 26.9567C9.90583 29.0574 10.3148 31.0626 11.0574 32.8971Z" stroke="black" stroke-opacity="0.91" stroke-width="2.11214" stroke-linecap="round" stroke-linejoin="round"/>
</svg>
