<svg width="43" height="43" viewBox="0 0 43 43" fill="none" xmlns="http://www.w3.org/2000/svg">
<path d="M15.1915 30.3199C15.1915 31.778 14.0095 32.96 12.5514 32.96C11.0932 32.96 9.9112 31.778 9.9112 30.3199M15.1915 30.3199C15.1915 28.8617 14.0095 27.6797 12.5514 27.6797C11.0932 27.6797 9.9112 28.8617 9.9112 30.3199M15.1915 30.3199H25.7522M9.9112 30.3199H6.61099C5.51739 30.3199 4.63086 29.4333 4.63086 28.3397V22.4001M25.7522 30.3199H29.7125M25.7522 30.3199V22.4001M4.63086 22.4001V8.96053C4.63086 7.96169 5.37454 7.11667 6.36805 7.01357C9.26815 6.7126 12.2118 6.55835 15.1915 6.55835C18.1712 6.55835 21.1149 6.7126 24.015 7.01357C25.0085 7.11667 25.7522 7.96169 25.7522 8.96053V10.6473M4.63086 22.4001H25.7522M34.9928 30.3199C34.9928 31.778 33.8108 32.96 32.3526 32.96C30.8945 32.96 29.7125 31.778 29.7125 30.3199M34.9928 30.3199C34.9928 28.8617 33.8108 27.6797 32.3526 27.6797C30.8945 27.6797 29.7125 28.8617 29.7125 30.3199M34.9928 30.3199L36.9729 30.3198C38.0665 30.3198 38.9595 29.4323 38.8922 28.3407C38.5225 22.343 36.4841 16.7967 33.2355 12.1605C32.598 11.2507 31.5657 10.7082 30.4564 10.6473H25.7522M25.7522 10.6473V22.4001" stroke="black" stroke-opacity="0.91" stroke-width="2.11214" stroke-linecap="round" stroke-linejoin="round"/>
</svg>
