<svg width="221" height="71" viewBox="0 0 221 71" fill="none" xmlns="http://www.w3.org/2000/svg">
<path d="M48.4663 16.7684C51.4922 16.7684 53.7963 17.4624 55.3786 18.8504C56.961 20.2107 57.7521 21.9873 57.7521 24.1804C57.7521 24.8189 57.6966 25.4157 57.5856 25.9709C57.2524 27.9142 56.4058 29.6492 55.0455 31.176C53.6852 32.7028 51.8669 33.7855 49.5906 34.424L54.296 46H46.2594L42.137 34.9653H40.4297L38.4726 46H31.3521L36.5155 16.7684H48.4663ZM50.2985 26.2624C50.354 25.8183 50.3818 25.5268 50.3818 25.388C50.3818 24.4997 50.0903 23.8195 49.5073 23.3476C48.9521 22.8479 48.1193 22.5981 47.0089 22.5981H42.595L41.3042 29.9268H45.718C47.0228 29.9268 48.0499 29.6075 48.7994 28.9691C49.5767 28.3306 50.0764 27.4284 50.2985 26.2624ZM78.4617 40.8366H67.5519L64.887 46H57.4333L73.1734 16.7684H81.4182L86.8315 46H79.2945L78.4617 40.8366ZM77.6289 35.4233L75.9217 24.5968L70.3419 35.4233H77.6289ZM116.659 26.1792C116.381 27.8725 115.729 29.4271 114.702 30.8429C113.674 32.2309 112.273 33.3552 110.496 34.2158C108.747 35.0763 106.679 35.5066 104.291 35.5066H99.8776L98.0038 46H90.8833L96.0467 16.7684H107.581C110.635 16.7684 112.939 17.4485 114.493 18.8088C116.048 20.1413 116.825 21.9596 116.825 24.2637C116.825 24.9577 116.77 25.5962 116.659 26.1792ZM104.708 29.9268C107.373 29.9268 108.941 28.6776 109.413 26.1792C109.469 25.735 109.497 25.4157 109.497 25.2214C109.497 24.3331 109.205 23.653 108.622 23.181C108.067 22.6814 107.206 22.4315 106.04 22.4315H102.168L100.877 29.9268H104.708ZM129.985 16.7684L124.821 46H117.701L122.864 16.7684H129.985ZM146.929 16.7684C149.622 16.7684 151.94 17.2542 153.883 18.2258C155.854 19.1697 157.353 20.5161 158.38 22.2649C159.435 23.9861 159.962 26.0126 159.962 28.3445C159.962 29.1495 159.865 30.1628 159.671 31.3842C159.171 34.2435 158.089 36.7836 156.423 39.0044C154.785 41.2252 152.689 42.9464 150.135 44.1678C147.609 45.3893 144.819 46 141.766 46H130.814L135.978 16.7684H146.929ZM142.39 39.9205C145.083 39.9205 147.318 39.171 149.094 37.6719C150.871 36.1729 151.981 34.077 152.426 31.3842C152.564 30.5514 152.634 29.8574 152.634 29.3022C152.634 27.2479 152.009 25.6656 150.76 24.5552C149.511 23.417 147.734 22.8479 145.43 22.8479H142.015L139.017 39.9205H142.39Z" fill="#48246C"/>
<path d="M188.385 24.347C188.079 26.0681 187.371 27.4978 186.261 28.6359C185.151 29.7741 183.818 30.5653 182.264 31.0094C183.652 31.3148 184.748 31.9949 185.553 33.0498C186.358 34.1047 186.761 35.34 186.761 36.7558C186.761 37.2 186.719 37.6303 186.636 38.0467C186.219 40.4896 185.026 42.4328 183.055 43.8763C181.084 45.2921 178.571 46 175.518 46H161.901L167.065 16.7684H180.223C182.86 16.7684 184.901 17.3097 186.344 18.3924C187.788 19.475 188.51 20.9741 188.51 22.8896C188.51 23.3615 188.468 23.8473 188.385 24.347ZM176.725 28.6359C177.919 28.6359 178.877 28.3722 179.599 27.8448C180.32 27.3173 180.764 26.5539 180.931 25.5545C180.959 25.388 180.973 25.1659 180.973 24.8883C180.973 24.0832 180.709 23.4725 180.182 23.0561C179.654 22.612 178.877 22.3899 177.85 22.3899H173.186L172.103 28.6359H176.725ZM179.557 37.0889C179.612 36.7558 179.64 36.506 179.64 36.3394C179.64 35.5344 179.349 34.9098 178.766 34.4656C178.183 33.9937 177.378 33.7577 176.351 33.7577H171.187L170.021 40.3369H175.268C176.489 40.3369 177.461 40.0593 178.183 39.5041C178.905 38.9489 179.363 38.1438 179.557 37.0889ZM220.414 16.7684L206.881 36.3394L205.132 46H198.011L199.76 36.3394L193.056 16.7684H201.134L204.632 28.9691L212.419 16.7684H220.414Z" fill="#9566C8"/>
<path d="M12.7286 56.2814L10.0306 65.5908H8.66828L6.50455 58.0979L4.26068 65.5908L2.91169 65.6042L0.307196 56.2814H1.60276L3.63293 64.175L5.8768 56.2814H7.23915L9.37617 64.1483L11.4197 56.2814H12.7286ZM21.004 61.6507C21.004 61.8822 20.9907 62.1271 20.964 62.3853H15.1139C15.1584 63.1065 15.4033 63.672 15.8485 64.0816C16.3026 64.4822 16.8502 64.6826 17.4913 64.6826C18.0167 64.6826 18.453 64.5624 18.8002 64.322C19.1564 64.0726 19.4057 63.7432 19.5482 63.3336H20.8571C20.6612 64.037 20.2694 64.6114 19.6818 65.0566C19.0941 65.4929 18.3639 65.711 17.4913 65.711C16.7968 65.711 16.1735 65.5552 15.6214 65.2436C15.0783 64.9319 14.6509 64.4911 14.3392 63.9213C14.0276 63.3425 13.8717 62.6747 13.8717 61.9178C13.8717 61.161 14.0231 60.4976 14.3259 59.9277C14.6286 59.3578 15.0515 58.9215 15.5947 58.6188C16.1468 58.3071 16.779 58.1513 17.4913 58.1513C18.1858 58.1513 18.8002 58.3027 19.3345 58.6054C19.8687 58.9082 20.2783 59.3267 20.5633 59.8609C20.8571 60.3863 21.004 60.9829 21.004 61.6507ZM19.7485 61.3969C19.7485 60.9339 19.6461 60.5377 19.4413 60.2082C19.2365 59.8698 18.9561 59.6161 18.5999 59.4469C18.2526 59.2688 17.8653 59.1798 17.4379 59.1798C16.8235 59.1798 16.2981 59.3757 15.8618 59.7674C15.4344 60.1592 15.1896 60.7024 15.1272 61.3969H19.7485ZM27.9189 59.6339C28.1682 59.1976 28.5333 58.8414 29.0141 58.5654C29.4949 58.2893 30.0425 58.1513 30.6569 58.1513C31.3158 58.1513 31.908 58.3071 32.4333 58.6188C32.9587 58.9304 33.3727 59.3712 33.6755 59.9411C33.9782 60.502 34.1296 61.1565 34.1296 61.9045C34.1296 62.6435 33.9782 63.3024 33.6755 63.8812C33.3727 64.46 32.9542 64.9096 32.42 65.2302C31.8946 65.5508 31.3069 65.711 30.6569 65.711C30.0247 65.711 29.4682 65.573 28.9874 65.297C28.5155 65.0209 28.1593 64.6692 27.9189 64.2418V65.5908H26.7034V55.7071H27.9189V59.6339ZM32.8874 61.9045C32.8874 61.3524 32.7761 60.8716 32.5535 60.462C32.3309 60.0524 32.0282 59.7407 31.6453 59.527C31.2713 59.3133 30.8573 59.2065 30.4032 59.2065C29.958 59.2065 29.5439 59.3178 29.161 59.5404C28.787 59.7541 28.4843 60.0702 28.2528 60.4887C28.0302 60.8983 27.9189 61.3747 27.9189 61.9178C27.9189 62.4699 28.0302 62.9552 28.2528 63.3737C28.4843 63.7833 28.787 64.0994 29.161 64.322C29.5439 64.5357 29.958 64.6425 30.4032 64.6425C30.8573 64.6425 31.2713 64.5357 31.6453 64.322C32.0282 64.0994 32.3309 63.7833 32.5535 63.3737C32.7761 62.9552 32.8874 62.4654 32.8874 61.9045ZM42.4878 58.2715V65.5908H41.2723V64.509C41.0408 64.8829 40.7158 65.1768 40.2973 65.3905C39.8877 65.5953 39.4336 65.6977 38.935 65.6977C38.3651 65.6977 37.8531 65.5819 37.399 65.3504C36.9449 65.11 36.5842 64.7538 36.3171 64.2819C36.0589 63.81 35.9298 63.2356 35.9298 62.5589V58.2715H37.1319V62.3986C37.1319 63.1199 37.3144 63.6764 37.6795 64.0682C38.0445 64.4511 38.5432 64.6425 39.1754 64.6425C39.8254 64.6425 40.3374 64.4422 40.7114 64.0415C41.0853 63.6408 41.2723 63.0576 41.2723 62.2918V58.2715H42.4878ZM45.4348 57.0828C45.2033 57.0828 45.0074 57.0027 44.8471 56.8424C44.6869 56.6821 44.6067 56.4862 44.6067 56.2547C44.6067 56.0232 44.6869 55.8273 44.8471 55.667C45.0074 55.5068 45.2033 55.4266 45.4348 55.4266C45.6574 55.4266 45.8444 55.5068 45.9958 55.667C46.1561 55.8273 46.2362 56.0232 46.2362 56.2547C46.2362 56.4862 46.1561 56.6821 45.9958 56.8424C45.8444 57.0027 45.6574 57.0828 45.4348 57.0828ZM46.0225 58.2715V65.5908H44.8071V58.2715H46.0225ZM49.5765 55.7071V65.5908H48.3611V55.7071H49.5765ZM51.461 61.9045C51.461 61.1565 51.6124 60.502 51.9152 59.9411C52.2179 59.3712 52.632 58.9304 53.1573 58.6188C53.6916 58.3071 54.2881 58.1513 54.9471 58.1513C55.5169 58.1513 56.0467 58.2849 56.5365 58.552C57.0262 58.8102 57.4002 59.1531 57.6584 59.5805V55.7071H58.8872V65.5908H57.6584V64.2151C57.418 64.6514 57.0618 65.012 56.5899 65.297C56.118 65.573 55.5659 65.711 54.9337 65.711C54.2837 65.711 53.6916 65.5508 53.1573 65.2302C52.632 64.9096 52.2179 64.46 51.9152 63.8812C51.6124 63.3024 51.461 62.6435 51.461 61.9045ZM57.6584 61.9178C57.6584 61.3658 57.5471 60.8849 57.3245 60.4753C57.1019 60.0657 56.7991 59.7541 56.4163 59.5404C56.0423 59.3178 55.6282 59.2065 55.1741 59.2065C54.72 59.2065 54.3059 59.3133 53.932 59.527C53.558 59.7407 53.2597 60.0524 53.0371 60.462C52.8145 60.8716 52.7032 61.3524 52.7032 61.9045C52.7032 62.4654 52.8145 62.9552 53.0371 63.3737C53.2597 63.7833 53.558 64.0994 53.932 64.322C54.3059 64.5357 54.72 64.6425 55.1741 64.6425C55.6282 64.6425 56.0423 64.5357 56.4163 64.322C56.7991 64.0994 57.1019 63.7833 57.3245 63.3737C57.5471 62.9552 57.6584 62.4699 57.6584 61.9178ZM62.4638 63.9079L60.9679 67.5008H60.1531L61.1281 63.9079H62.4638ZM79.6513 56.2814L76.9533 65.5908H75.591L73.4273 58.0979L71.1834 65.5908L69.8344 65.6042L67.2299 56.2814H68.5255L70.5556 64.175L72.7995 56.2814H74.1619L76.2989 64.1483L78.3424 56.2814H79.6513ZM87.9267 61.6507C87.9267 61.8822 87.9134 62.1271 87.8867 62.3853H82.0366C82.0811 63.1065 82.326 63.672 82.7712 64.0816C83.2253 64.4822 83.7729 64.6826 84.414 64.6826C84.9394 64.6826 85.3757 64.5624 85.7229 64.322C86.0791 64.0726 86.3284 63.7432 86.4709 63.3336H87.7798C87.5839 64.037 87.1921 64.6114 86.6045 65.0566C86.0168 65.4929 85.2866 65.711 84.414 65.711C83.7195 65.711 83.0962 65.5552 82.5441 65.2436C82.001 64.9319 81.5736 64.4911 81.2619 63.9213C80.9503 63.3425 80.7944 62.6747 80.7944 61.9178C80.7944 61.161 80.9458 60.4976 81.2486 59.9277C81.5513 59.3578 81.9743 58.9215 82.5174 58.6188C83.0695 58.3071 83.7017 58.1513 84.414 58.1513C85.1086 58.1513 85.7229 58.3027 86.2572 58.6054C86.7915 58.9082 87.2011 59.3267 87.486 59.8609C87.7798 60.3863 87.9267 60.9829 87.9267 61.6507ZM86.6712 61.3969C86.6712 60.9339 86.5689 60.5377 86.3641 60.2082C86.1593 59.8698 85.8788 59.6161 85.5226 59.4469C85.1753 59.2688 84.788 59.1798 84.3606 59.1798C83.7462 59.1798 83.2209 59.3757 82.7845 59.7674C82.3571 60.1592 82.1123 60.7024 82.0499 61.3969H86.6712ZM93.172 61.9045C93.172 61.1565 93.3234 60.502 93.6262 59.9411C93.9289 59.3712 94.3429 58.9304 94.8683 58.6188C95.4026 58.3071 95.9991 58.1513 96.6581 58.1513C97.2279 58.1513 97.7577 58.2849 98.2475 58.552C98.7372 58.8102 99.1112 59.1531 99.3694 59.5805V55.7071H100.598V65.5908H99.3694V64.2151C99.129 64.6514 98.7728 65.012 98.3009 65.297C97.829 65.573 97.2769 65.711 96.6447 65.711C95.9947 65.711 95.4026 65.5508 94.8683 65.2302C94.3429 64.9096 93.9289 64.46 93.6262 63.8812C93.3234 63.3024 93.172 62.6435 93.172 61.9045ZM99.3694 61.9178C99.3694 61.3658 99.2581 60.8849 99.0355 60.4753C98.8129 60.0657 98.5101 59.7541 98.1273 59.5404C97.7533 59.3178 97.3392 59.2065 96.8851 59.2065C96.431 59.2065 96.0169 59.3133 95.643 59.527C95.269 59.7407 94.9707 60.0524 94.7481 60.462C94.5255 60.8716 94.4142 61.3524 94.4142 61.9045C94.4142 62.4654 94.5255 62.9552 94.7481 63.3737C94.9707 63.7833 95.269 64.0994 95.643 64.322C96.0169 64.5357 96.431 64.6425 96.8851 64.6425C97.3392 64.6425 97.7533 64.5357 98.1273 64.322C98.5101 64.0994 98.8129 63.7833 99.0355 63.3737C99.2581 62.9552 99.3694 62.4699 99.3694 61.9178ZM109.597 61.6507C109.597 61.8822 109.584 62.1271 109.557 62.3853H103.707C103.752 63.1065 103.997 63.672 104.442 64.0816C104.896 64.4822 105.444 64.6826 106.085 64.6826C106.61 64.6826 107.046 64.5624 107.394 64.322C107.75 64.0726 107.999 63.7432 108.142 63.3336H109.451C109.255 64.037 108.863 64.6114 108.275 65.0566C107.687 65.4929 106.957 65.711 106.085 65.711C105.39 65.711 104.767 65.5552 104.215 65.2436C103.672 64.9319 103.244 64.4911 102.933 63.9213C102.621 63.3425 102.465 62.6747 102.465 61.9178C102.465 61.161 102.617 60.4976 102.919 59.9277C103.222 59.3578 103.645 58.9215 104.188 58.6188C104.74 58.3071 105.372 58.1513 106.085 58.1513C106.779 58.1513 107.394 58.3027 107.928 58.6054C108.462 58.9082 108.872 59.3267 109.157 59.8609C109.451 60.3863 109.597 60.9829 109.597 61.6507ZM108.342 61.3969C108.342 60.9339 108.24 60.5377 108.035 60.2082C107.83 59.8698 107.549 59.6161 107.193 59.4469C106.846 59.2688 106.459 59.1798 106.031 59.1798C105.417 59.1798 104.892 59.3757 104.455 59.7674C104.028 60.1592 103.783 60.7024 103.721 61.3969H108.342ZM112.684 55.7071V65.5908H111.469V55.7071H112.684ZM115.651 57.0828C115.419 57.0828 115.223 57.0027 115.063 56.8424C114.903 56.6821 114.823 56.4862 114.823 56.2547C114.823 56.0232 114.903 55.8273 115.063 55.667C115.223 55.5068 115.419 55.4266 115.651 55.4266C115.873 55.4266 116.06 55.5068 116.212 55.667C116.372 55.8273 116.452 56.0232 116.452 56.2547C116.452 56.4862 116.372 56.6821 116.212 56.8424C116.06 57.0027 115.873 57.0828 115.651 57.0828ZM116.238 58.2715V65.5908H115.023V58.2715H116.238ZM121.302 64.4689L123.572 58.2715H124.868L121.996 65.5908H120.58L117.709 58.2715H119.018L121.302 64.4689ZM133.009 61.6507C133.009 61.8822 132.996 62.1271 132.969 62.3853H127.119C127.164 63.1065 127.408 63.672 127.854 64.0816C128.308 64.4822 128.855 64.6826 129.496 64.6826C130.022 64.6826 130.458 64.5624 130.805 64.322C131.162 64.0726 131.411 63.7432 131.553 63.3336H132.862C132.666 64.037 132.275 64.6114 131.687 65.0566C131.099 65.4929 130.369 65.711 129.496 65.711C128.802 65.711 128.179 65.5552 127.627 65.2436C127.083 64.9319 126.656 64.4911 126.344 63.9213C126.033 63.3425 125.877 62.6747 125.877 61.9178C125.877 61.161 126.028 60.4976 126.331 59.9277C126.634 59.3578 127.057 58.9215 127.6 58.6188C128.152 58.3071 128.784 58.1513 129.496 58.1513C130.191 58.1513 130.805 58.3027 131.34 58.6054C131.874 58.9082 132.283 59.3267 132.568 59.8609C132.862 60.3863 133.009 60.9829 133.009 61.6507ZM131.754 61.3969C131.754 60.9339 131.651 60.5377 131.446 60.2082C131.242 59.8698 130.961 59.6161 130.605 59.4469C130.258 59.2688 129.87 59.1798 129.443 59.1798C128.829 59.1798 128.303 59.3757 127.867 59.7674C127.44 60.1592 127.195 60.7024 127.132 61.3969H131.754ZM136.096 59.4602C136.31 59.0417 136.613 58.7167 137.004 58.4852C137.405 58.2537 137.89 58.138 138.46 58.138V59.3935H138.14C136.777 59.3935 136.096 60.1325 136.096 61.6106V65.5908H134.881V58.2715H136.096V59.4602Z" fill="#48246C"/>
<path d="M23.8328 17.9314H30.0116L16.3299 45.2947H10.1511L23.8328 17.9314Z" fill="#48246C"/>
<path d="M13.6817 17.9314H19.8605L6.17882 45.2947H0L13.6817 17.9314Z" fill="#48246C"/>
</svg>
